<?xml version="1.0" encoding="utf-8"?>
<!-- Generator: Adobe Illustrator 22.0.0, SVG Export Plug-In . SVG Version: 6.00 Build 0)  -->
<svg version="1.1" id="Capa_1" xmlns="http://www.w3.org/2000/svg" xmlns:xlink="http://www.w3.org/1999/xlink" x="0px" y="0px"
	 viewBox="0 0 512 512" style="enable-background:new 0 0 512 512;" xml:space="preserve">
<style type="text/css">
	.st0{fill:#E4A2B0;}
</style>
<path class="st0" d="M212.4,298.4l-2.2,0.9l6.3,15.8l2.2-0.9c23-9.2,51.5-9.2,74.5,0l2.2,0.9l6.3-15.8l-2.2-0.9
	C272.6,287.7,239.4,287.7,212.4,298.4z"/>
<path class="st0" d="M247.5,170.8h17.1v93.8h-17.1V170.8z"/>
<path class="st0" d="M494.9,0.2v156.5c0,2.7-0.4,5.5-1.3,8.1L453,286.5l-63.3,99.1c-2,3.1-5.1,5.2-8.7,5.9
	c-7.6,1.2-14.8-4-15.9-11.6c-0.5-2.9,0-5.9,1.4-8.6c14.8-26.9,42.1-77,42.1-77c0.3-0.6,0.6-1.2,0.7-1.8l6.9-25.3l27.1-85.3
	l-16.3-5.2l-27.2,85.5l0.1,0c0,0.1-0.1,0.2-0.2,0.3c-2.2,8-10.4,12.7-18.4,10.5c-0.6-0.2-1.1-0.3-1.6-0.5
	c-6.7-2.7-10.5-9.8-9.1-16.8l13.2-66.1c0.1-0.6,0.2-1.1,0.2-1.7v-25c-0.1-36.4,14.4-71.3,40.2-96.9c1.6-1.6,2.5-3.8,2.5-6V0.2h-17.1
	v56.2c-5.9,6.2-11.3,13-16.1,20.1C346.3,0.6,246.6-22.8,170.7,24.3c-21.2,13.1-39,31-52.2,52.2c-4.8-7.1-10.2-13.8-16.1-20.1V0.2
	H85.4v59.7c0,2.3,0.9,4.4,2.5,6c25.8,25.7,40.3,60.6,40.2,96.9v25c0,0.6,0.1,1.1,0.2,1.7l13.2,66.1c1.4,7.1-2.4,14.2-9.1,16.9
	c-7.7,3.1-16.4-0.7-19.5-8.4c-0.2-0.5-0.4-1.1-0.5-1.6c0-0.1-0.1-0.2-0.2-0.3l0.1,0L85,176.7l-16.3,5.2l27.1,85.3l6.9,25.3
	c0.2,0.6,0.4,1.3,0.7,1.8c0,0,27.3,50,42.1,77c3.3,6,1.7,13.3-4.3,17.8c-2.9,2.2-6.6,3.1-10.2,2.4c-3.6-0.6-6.8-2.8-8.7-5.9
	L59,286.5L18.5,164.8c-0.9-2.6-1.3-5.3-1.3-8.1V0.2H0.1v156.5c0,4.6,0.7,9.1,2.2,13.5l40.9,122.7c0.2,0.7,0.5,1.3,0.9,1.9l63.9,100
	c4.5,7.1,11.8,12,20.1,13.5c1.8,0.3,3.5,0.5,5.3,0.5c6.7,0,13.3-2.3,18.6-6.4c0.3-0.3,0.6-0.6,0.9-0.8c0.6,0.7,1.2,1.5,1.8,2.1
	c4.9,5.4,10.3,10.4,16,14.9v32.4c0,16.9-2.7,33.8-8.1,49.9c-1.5,4.5,0.9,9.3,5.4,10.8c0.9,0.3,1.8,0.4,2.7,0.4h170.6
	c4.7,0,8.5-3.8,8.5-8.5c0-0.9-0.1-1.8-0.4-2.7c-5.4-16.1-8.1-32.9-8.1-49.9v-32.4c5.7-4.5,11-9.5,15.9-14.9c0.7-0.7,1.2-1.5,1.9-2.2
	c0.5,0.4,0.8,0.8,1.3,1.2c13.4,10,32.3,7.3,42.3-6c0.5-0.6,0.9-1.2,1.3-1.9l63.9-100c0.4-0.6,0.7-1.2,0.9-1.9l40.9-122.7
	c1.4-4.3,2.2-8.9,2.2-13.5V0.2L494.9,0.2z M381.6,97.4c-2.2-2.7-4.5-5.2-6.8-7.7l4.2-4.2c1.6,2.5,3.1,5.1,4.5,7.8
	C382.8,94.6,382.2,96.1,381.6,97.4L381.6,97.4z M369,71.3l-6.5,6.5c-6.4-5.6-13.2-10.7-20.4-15.2l9.4-9.4
	C357.9,58.7,363.7,64.8,369,71.3z M185.4,54l-11.4-11.4c8.3-5.8,17.3-10.6,26.7-14.5l8.3,16.6C200.9,47.2,193,50.3,185.4,54
	L185.4,54z M226.1,40.7l-9-18c9.9-2.7,20.1-4.4,30.4-5v20.4C240.3,38.4,233.1,39.3,226.1,40.7L226.1,40.7z M264.5,17.5
	c10.3,0.6,20.5,2.3,30.5,5l-9.1,18.1c-7.1-1.4-14.2-2.2-21.4-2.6V17.5z M311.3,28.2c9.4,3.9,18.4,8.7,26.7,14.4L326.5,54
	c-7.6-3.7-15.5-6.8-23.6-9.3L311.3,28.2z M160.5,53.3l9.3,9.3c-7.2,4.5-14,9.6-20.4,15.2l-6.4-6.4c3.2-4.1,6.7-8,10.3-11.7
	C155.7,57.4,158.1,55.4,160.5,53.3L160.5,53.3z M133,85.5l4.2,4.2c-2.3,2.5-4.6,5-6.8,7.7c-0.6-1.4-1.2-2.8-1.9-4.1
	C130,90.6,131.4,88,133,85.5L133,85.5z M329.9,494.9H182.1c3.7-14.4,5.6-29.2,5.7-44v-20.5c4.2,2.4,8.5,4.6,12.9,6.6
	c35.2,15.7,75.4,15.7,110.7,0c4.4-2,8.7-4.2,12.9-6.6v20.5C324.2,465.8,326.1,480.6,329.9,494.9z M344.6,392.3
	c-11.2,12.5-24.9,22.4-40.2,29.2c-30.8,13.6-66,13.6-96.8,0c-15.3-6.8-29.1-16.8-40.3-29.3c-1.6-1.7-3-3.5-4.5-5.3
	c2.6-7.9,1.7-16.6-2.3-23.9c-12.3-22.4-33.2-60.7-40-73c17.4,3.4,34.2-7.9,37.6-25.3c0.8-4.1,0.8-8.3,0-12.4l-5.8-28.9
	c7.5,0.7,15.1,1.2,22.8,1.2c13.3,0,26.6-1.1,39.7-3.4l-2.9-16.8c-20.8,3.5-42.1,4-63,1.4l-3.8-18.8v-14.7
	c19.3-10.3,42.5-12.8,66.1-6.8l4.2-16.5c-24.8-6.3-49.4-4.5-70.8,4.6c-0.7-12.7-3-25.3-6.9-37.5c4.3-6.1,9-11.9,14.1-17.2
	c0.5-0.5,1-1,1.5-1.6c0.4-0.4,0.9-0.9,1.7-1.6c9.7-9.4,20.7-17.4,32.6-23.8c11.2-6,23.1-10.5,35.5-13.3c21.5-5,43.9-5,65.4,0
	c12.4,2.8,24.3,7.3,35.5,13.3c12,6.4,23,14.4,32.7,23.9c1.1,1.1,2.2,2.1,3.4,3.4c5.1,5.3,9.7,10.9,13.8,16.9
	c-3.8,12.2-6.1,24.8-6.9,37.5c-21.4-9.2-46-10.9-70.8-4.6l4.2,16.5c23.6-6,46.9-3.5,66.1,6.8V187l-3.9,19.6
	c-18.1,1.6-36.4,0.8-54.3-2.2l-2.9,16.8c13,2.2,26.1,3.3,39.2,3.3c4.9,0,9.7-0.2,14.6-0.5l-5.6,28.2c-3.5,17.4,7.8,34.2,25.1,37.7
	c4.1,0.8,8.3,0.8,12.4,0c-6.7,12.3-27.6,50.6-40,73c-4,7.3-4.9,15.9-2.3,23.8C347.7,388.7,346.2,390.5,344.6,392.3L344.6,392.3z"/>
</svg>
