<?xml version="1.0" encoding="utf-8"?>
<!-- Generator: Adobe Illustrator 22.0.0, SVG Export Plug-In . SVG Version: 6.00 Build 0)  -->
<svg version="1.1" id="Layer_1" xmlns="http://www.w3.org/2000/svg" xmlns:xlink="http://www.w3.org/1999/xlink" x="0px" y="0px"
	 viewBox="0 0 512 512" style="enable-background:new 0 0 512 512;" xml:space="preserve">
<style type="text/css">
	.st0{fill:#E4A2B0;}
</style>
<g id="Layer_3">
	<path class="st0" d="M329.5,229.7c0,59.4,25.8,106,58.7,106s58.7-46.6,58.7-106s-25.8-106-58.7-106S329.5,170.2,329.5,229.7z
		 M432.9,229.7c0,49.9-20.5,92-44.7,92s-44.7-42.1-44.7-92s20.5-92,44.7-92S432.9,179.8,432.9,229.7z"/>
	<path class="st0" d="M505-0.2H271.4c-3.9,0-7,3.1-7,7v34.8c0,0.1,0,0.2,0,0.4c0,0.1,0,0.2,0,0.3L285,250h-8.2v-6.8
		c0-16.7-11.8-31.1-28.2-34.4c-1.2-26.4-10.1-51.9-25.7-73.4l-17.3-23.9c-1.3-1.8-3.4-2.9-5.6-2.9c-2.2-0.1-4.3,0.9-5.6,2.7
		l-20.8,27.2c-13.5,17.5-34.3,27.8-56.4,27.8c-24.4,0-45.1,18.1-48.3,42.4c-16.5,3.1-28.5,17.6-28.5,34.4v6.8h-9.4c-3.9,0-7,3.1-7,7
		v46.1H7c-3.9,0-7,3.1-7,7c0,0,0,0,0,0V389c0.1,43.6,14.7,86,41.5,120.4c1.3,1.7,3.4,2.7,5.5,2.7h223c2.2,0,4.2-1,5.5-2.7
		c10.6-13.7,19.4-28.7,26.1-44.7v24.1c0,12.7,10.3,23,23,23H451c12.7,0,23-10.3,23-23v-68.1c0.4-0.7,0.6-1.5,0.7-2.3l37.2-376.1V42
		c0-0.1,0-0.2,0-0.4V6.8C512,3,508.8-0.2,505-0.2L505-0.2z M54.2,243.2c0-11.6,9.5-21,21.1-21h59.3c3.9,0,7-3.1,7-7s-3.1-7-7-7H83
		c3.3-16.1,17.5-27.7,34-27.8c26.4-0.1,51.4-12.4,67.5-33.3l15.1-19.7l11.8,16.3c13.7,18.8,21.7,41.2,22.9,64.5h-13.5
		c-3.9,0-7,3.1-7,7s3.1,7,7,7h19.4c0.2,0,0.5,0,0.7-0.1c0.2,0,0.4,0.1,0.6,0.1h0.1c11.6,0,21,9.4,21,21v6.8H54.2L54.2,243.2z
		 M37.8,290.5H123c3.9,0,7-3.1,7-7s-3.1-7-7-7H37.8V264h241.3v12.5H194c-3.9,0-7,3.1-7,7s3.1,7,7,7h85.2v12.6H37.8L37.8,290.5z
		 M303,389c0,3.6-0.2,7.4-0.4,11.1c0,0.5,0,1.1-0.1,1.6c-0.3,3.6-0.6,7.3-1.1,10.9c-4.1,31-16.1,60.5-34.9,85.6H50.4
		C26.8,466.7,14,428.4,14,389v-71.9h289L303,389z M460,488.8c0,5-4,9-9,9H324.6c-5,0-9-4-9-9v-36.6H460V488.8z M460,438.2H315.6
		v-13.5H460V438.2z M461.4,410.7H315.7c0-0.5,0.1-0.9,0.1-1.4c0.3-2.7,0.5-5.4,0.7-8c0-0.8,0.1-1.6,0.2-2.4c0.2-3.3,0.3-6.6,0.3-9.9
		v-78.9c0-3.9-3.1-7-7-7c0,0,0,0,0,0h-5.7L279.1,48.6h218.1L461.4,410.7z M498,34.6H278.4V13.8H498V34.6z"/>
	<path class="st0" d="M220.8,381.7c0-3.9-3.1-7-7-7c-10.2,0-20.3,2.5-29.3,7.3c-4.1-11.3-12.1-20.8-22.5-26.8c-2.2-1.3-4.8-1.3-7,0
		c-10.4,6-18.4,15.5-22.5,26.8c-9-4.8-19.1-7.4-29.3-7.3c-3.9,0-7,3.1-7,7v0.9c0,14,4.8,27.7,13.5,38.6c-5.2,3.3-9.5,7.9-12.6,13.2
		c-1.3,2.2-1.3,4.8,0,7c10.7,18.6,34.5,25,53.1,14.3c3-1.7,5.8-3.9,8.3-6.4c15.1,15.3,39.7,15.5,55,0.4c2.5-2.5,4.6-5.2,6.4-8.3
		c1.3-2.2,1.3-4.8,0-7c-3.1-5.3-7.4-9.9-12.6-13.2c8.8-11,13.5-24.6,13.5-38.6V381.7z M187.5,396.5c5.7-3.7,12.1-6.2,18.8-7.2
		c-2.2,15.5-11.8,29-25.6,36.3c0.8-0.4,1.4-2.8,1.7-3.5c1-2.2,2-4.5,2.7-6.8C187.1,409.2,187.9,402.8,187.5,396.5L187.5,396.5z
		 M158.5,369.6c16.6,12.2,20.1,35.6,7.8,52.2c-2.2,3-4.8,5.6-7.8,7.8c-16.6-12.2-20.1-35.6-7.8-52.1
		C152.8,374.4,155.5,371.8,158.5,369.6z M129.4,396.5c-0.4,6.3,0.4,12.6,2.3,18.6c0.8,2.5,1.8,4.9,3,7.3c0.6,1,1,2.1,1.5,3.2
		c-13.8-7.3-23.4-20.7-25.6-36.2C117.3,390.3,123.7,392.8,129.4,396.5L129.4,396.5z M130.8,447c-7.4,0-14.4-3.3-19.2-9
		c2.2-2.7,5-4.9,8.2-6.4c7.1,5.6,15.3,9.6,24,11.7C139.9,445.7,135.4,447,130.8,447L130.8,447z M186.1,447c-4.6,0-9.1-1.3-13.1-3.7
		c8.8-2.1,16.9-6.1,24-11.7c3.1,1.5,5.9,3.7,8.2,6.4C200.5,443.6,193.5,446.9,186.1,447L186.1,447z"/>
	<path class="st0" d="M195,208.2h-14c-3.9,0-7,3.1-7,7s3.1,7,7,7h14c3.9,0,7-3.1,7-7S198.9,208.2,195,208.2z"/>
</g>
</svg>
