<?xml version="1.0" encoding="utf-8"?>
<!-- Generator: Adobe Illustrator 22.0.0, SVG Export Plug-In . SVG Version: 6.00 Build 0)  -->
<svg version="1.1" id="outline" xmlns="http://www.w3.org/2000/svg" xmlns:xlink="http://www.w3.org/1999/xlink" x="0px" y="0px"
	 viewBox="0 0 512 512" style="enable-background:new 0 0 512 512;" xml:space="preserve">
<style type="text/css">
	.st0{fill:#E4A2B0;}
</style>
<path class="st0" d="M104,296.7l-16-1.3c-0.2,2.1-4,51.8,24,82.1c14.5,15.3,34.9,23.5,56,22.5v-16c-16.5,0.9-32.6-5.4-44.2-17.3
	C100.6,341.6,103.9,297.1,104,296.7z"/>
<rect x="320" y="264" class="st0" width="104" height="16"/>
<rect x="288" y="264" class="st0" width="16" height="16"/>
<path class="st0" d="M76.4,232H56v104c0.1,49.9,38.3,91.4,88,95.6V480h224v-48.4c49.7-4.2,87.9-45.7,88-95.6V232h-76.7l50-50
	c5.3-4.3,41.4-33.4,48.3-40.3c20.8-19.4,21.9-52,2.5-72.8c-0.8-0.9-1.6-1.7-2.5-2.5c-19.3-20.8-51.9-22-72.7-2.6
	c-0.9,0.8-1.8,1.7-2.6,2.6c-6.9,6.9-36.1,43.1-40.3,48.3L244.7,232h-33.1c37.3-21.4,60.3-61,60.4-104V40c0-4.4-3.6-8-8-8h-16
	c-55.1,0.1-103.1,37.7-116.4,91.3C111.5,82.1,69.8,56.1,24,56c-4.4,0-8,3.6-8,8v64C16.1,171,39.1,210.6,76.4,232z M352,464H224v-16
	h-16v16h-16v-16h-16v16h-16v-32h192V464z M413.7,77.7c13.5-14.5,36.2-15.4,50.8-1.9c0.7,0.6,1.3,1.2,1.9,1.9
	c14.5,13.3,15.6,35.8,2.3,50.4c-0.7,0.8-1.5,1.6-2.3,2.3c-4.7,4.7-28.2,23.9-41.8,34.9l-45.8-45.8C389.8,105.8,409,82.4,413.7,77.7z
	 M368,131.3l44.7,44.7L400,188.7L355.3,144L368,131.3z M344,155.3l44.7,44.7L360,228.7L315.3,184L344,155.3z M304,195.3l36.7,36.7
	h-73.4L304,195.3z M440,248v88c0,44.2-35.8,80-80,80H152c-44.2,0-80-35.8-80-80v-88H440z M144,152c0.1-57.4,46.6-103.9,104-104h8v80
	c-0.1,57.4-46.6,103.9-104,104h-8v-3.9c15-10.9,72.6-56.8,80-123.3l-15.9-1.8c-5.5,49.5-43.8,87.6-64,104.6V152z M32,72.3
	c54.1,4.2,95.9,49.4,96,103.7v33.4c-25.8-19.4-45.4-45.9-56.5-76.2l-15,5.6c13.2,37,38.4,68.7,71.5,89.9v3
	c-54.1-4.2-95.9-49.4-96-103.7V72.3z"/>
<rect x="436.7" y="88" transform="matrix(0.7071 -0.7071 0.7071 0.7071 63.3328 344.9037)" class="st0" width="22.6" height="16"/>
<rect x="412.7" y="112" transform="matrix(0.7071 -0.7071 0.7071 0.7071 39.3348 334.9618)" class="st0" width="22.6" height="16"/>
</svg>
