<?xml version="1.0" encoding="utf-8"?>
<!-- Generator: Adobe Illustrator 22.0.0, SVG Export Plug-In . SVG Version: 6.00 Build 0)  -->
<svg version="1.1" id="Capa_1" xmlns="http://www.w3.org/2000/svg" xmlns:xlink="http://www.w3.org/1999/xlink" x="0px" y="0px"
	 viewBox="0 0 512 512" style="enable-background:new 0 0 512 512;" xml:space="preserve">
<style type="text/css">
	.st0{fill:#E4A2B0;}
</style>
<g>
	<g>
		<path class="st0" d="M505.5,98l-20.4-7.9c-29.7-11.4-56.2-30.5-76.5-55C390.2,12.8,363,0,334.1,0c-26.3,0-51.7,10.9-69.9,29.9
			l-8.4,8.7l-8.4-8.7C229.4,10.9,204,0,177.7,0c-28.9,0-56.1,12.8-74.5,35.1c-20.3,24.6-46.7,43.6-76.5,55L6.3,98
			c-8.7,3.4-8.2,16.3,0.8,18.9c0.2,0.1,0.4,0.1,0.6,0.2c0.1,0,0.2,0,0.3,0.1c0.2,0,0.4,0.1,0.6,0.1c0.1,0,0.2,0,0.3,0
			c0.2,0,0.4,0,0.6,0c0.1,0,0.2,0,0.4,0c0,0,0,0,0,0c15.6,0,32.7,14.2,54.5,32.3c9.8,8.1,20.9,17.4,33.2,26.3
			c4.5,3.3,10.7,2.3,14-2.2c3.3-4.5,2.3-10.7-2.2-14c-11.8-8.6-22.2-17.2-32.2-25.5c-11.6-9.6-22-18.2-32.1-24.8
			c30-5.5,75.1-9.8,109,3.7c47.1,18.9,83.1,21,96.7,21c0.1,0,0.2,0,0.2,0c13.6,0,49.6-2.1,96.7-21c37-14.8,87.4-8.2,116.9-2.2
			c-9.4,6.3-19.1,14.4-29.8,23.2c-33.8,28.1-76,63.1-144.7,72.1c-5.5,0.7-9.3,5.7-8.6,11.2c0.7,5,5,8.7,9.9,8.7c0.4,0,0.9,0,1.3-0.1
			c74.4-9.8,120.9-48.3,154.8-76.5c21.7-18,38.9-32.3,54.5-32.3c4.8,0,9-3.4,9.8-8.2C512.6,104.4,510,99.7,505.5,98z M340.2,94.6
			c-38.8,15.5-69.6,18.8-84.2,19.4c-0.1,0-0.1,0-0.2,0h-9.9c-0.1,0-0.1,0-0.2,0c-14.7-0.6-45.5-3.9-84.3-19.4
			c-25.6-10.3-55.9-11.7-82.9-9.7c14.9-10.5,28.4-23,40.1-37.1C133.3,30.1,154.8,20,177.7,20c20.8,0,41,8.6,55.4,23.7L248.7,60
			c1.9,2,4.5,3.1,7.2,3.1c2.7,0,5.3-1.1,7.2-3.1l15.6-16.3C293.1,28.6,313.3,20,334.1,20c22.9,0,44.4,10.1,59.1,27.8
			c12.1,14.6,26.1,27.4,41.6,38.2C405.2,82.7,369.6,82.8,340.2,94.6z"/>
	</g>
</g>
<g>
	<g>
		<path class="st0" d="M256,208.5h-0.3c-5.5,0-10,4.5-10,10s4.5,10,10,10h0.2c5.5,0,10-4.5,10-10S261.6,208.5,256,208.5z"/>
	</g>
</g>
<g>
	<g>
		<path class="st0" d="M237.9,320.1V276c0-8.2-4.9-15.2-12-18.3v-61.8c0-11.1-6.1-21.2-15.8-26.4l-32-17.1c-9.4-5-20.4-4.8-29.6,0.7
			c-9.1,5.5-14.6,15.1-14.6,25.7v78.9c-7.1,3.1-12,10.1-12,18.3v44.1c-10.1,1-18,9.5-18,19.9v142c0,16.5,13.5,30,30,30h92
			c16.5,0,30-13.5,30-30V340C255.9,329.6,248,321.1,237.9,320.1z M153.9,178.7L153.9,178.7c0-5.1,3.4-7.7,4.9-8.6
			c1.5-0.9,5.4-2.6,9.9-0.2l32,17.1c3.3,1.7,5.3,5.1,5.3,8.8V256h-52V178.7z M141.9,276h2h72h2v44h-76V276z M235.9,482
			c0,5.5-4.5,10-10,10h-18v-76c0-5.5-4.5-10-10-10s-10,4.5-10,10v76h-54c-5.5,0-10-4.5-10-10V340h112V482z"/>
	</g>
</g>
<g>
	<g>
		<path class="st0" d="M205,370.9c-1.9-1.9-4.4-2.9-7.1-2.9s-5.2,1.1-7.1,2.9s-2.9,4.4-2.9,7.1s1.1,5.2,2.9,7.1
			c1.9,1.9,4.4,2.9,7.1,2.9s5.2-1.1,7.1-2.9c1.9-1.9,2.9-4.4,2.9-7.1S206.9,372.8,205,370.9z"/>
	</g>
</g>
</svg>
