<?xml version="1.0" encoding="utf-8"?>
<!-- Generator: Adobe Illustrator 22.0.0, SVG Export Plug-In . SVG Version: 6.00 Build 0)  -->
<svg version="1.1" id="Capa_1" xmlns="http://www.w3.org/2000/svg" xmlns:xlink="http://www.w3.org/1999/xlink" x="0px" y="0px"
	 viewBox="0 0 503.7 503.7" style="enable-background:new 0 0 503.7 503.7;" xml:space="preserve">
<style type="text/css">
	.st0{fill:#E4A2B0;}
</style>
<g>
	<g>
		<g>
			<path class="st0" d="M496.2,177.3c4.7-4.7,7.4-11.1,7.4-17.8c-0.1-13.9-11.3-25.2-25.3-25.2h-0.1c-6.7,0-13,2.7-17.7,7.4
				L432,170.3c-6.8-1.6-13.8-2.4-20.8-2.4V86.2l32.5-56.8c0.1-0.1,0.1-0.3,0.2-0.5c0.2-0.5,0.4-1,0.5-1.6c0.2-0.5,0.3-1.1,0.3-1.6
				c0-0.2,0.1-0.3,0.1-0.5c-0.1-0.5-0.1-1.1-0.3-1.6c0-0.3,0-0.5-0.1-0.8C440.6,0.7,384.3,0,377.7,0s-62.9,0.7-66.8,22.8
				c-0.1,0.2-0.1,0.5-0.1,0.8c-0.1,0.5-0.2,1.1-0.3,1.6c0,0.2,0.1,0.3,0.1,0.5c0.1,0.6,0.2,1.1,0.3,1.6c0.1,0.5,0.3,1.1,0.5,1.6
				c0.1,0.1,0.1,0.3,0.2,0.5l32.5,56.8v81.7h-33.6v-55.6c6.1-8.8,9-19.3,8.4-30c0-23.5-25.4-44.5-28.3-46.8
				c-0.2-0.2-0.5-0.2-0.7-0.4c-0.9-0.6-1.9-1-3-1.2c-2.1-0.4-4.3,0.1-6.1,1.2c-0.2,0.1-0.5,0.2-0.7,0.4
				c-2.9,2.3-28.3,23.3-28.3,46.8c-0.6,10.6,2.3,21.2,8.4,30v55.6H235V92.3c0-0.3-0.1-0.5-0.2-0.8c0-0.3,0-0.5,0-0.8l-8.7-44.4
				c-1.9-7.6-8.7-12.8-16.5-12.7s-14.5,5.5-16.2,13.1l-8.6,44c0,0.3,0,0.5,0,0.8c-0.1,0.3-0.1,0.5-0.2,0.8v75.5h-16.8v-33.6
				c0-9.3-7.5-16.8-16.8-16.8V98.4c5.2-3,8.4-8.5,8.4-14.5V16.8C159.5,7.5,152,0,142.7,0h-42c-9.3,0-16.8,7.5-16.8,16.8v67.1
				c0,6,3.2,11.5,8.4,14.5v19.1c-9.3,0-16.8,7.5-16.8,16.8v35.2C31.8,177.5,0,215.8,0.1,260.3l0.2,226.2c-0.1,4.5,1.6,8.9,4.7,12.2
				s7.5,5.1,12,5.1h469.6c4.5,0,8.8-1.8,12-5c3.2-3.2,4.9-7.5,4.8-12l0.2-226.4c0.1-24-9.3-47.1-26-64.3L496.2,177.3z M472.5,153.6
				c1.5-1.6,3.6-2.5,5.8-2.5h0c3.4,0,6.5,2,7.8,5.1s0.6,6.8-1.8,9.2L464.7,185c-4.7-3.4-9.7-6.3-15-8.7L472.5,153.6z M328.7,25.3
				c5.4-3.5,22.3-8.5,49-8.5s43.6,5,49,8.5l0,0L398,75.5h-40.6L328.7,25.3z M360.9,109.1V92.3h33.6v16.8
				C394.5,109.1,360.9,109.1,360.9,109.1z M394.5,125.9v42h-33.6v-42C360.9,125.9,394.5,125.9,394.5,125.9z M268.6,82.3
				c0-10.2,9.6-21.9,16.8-29c7.2,7,16.8,18.7,16.8,29c0.4,6.4-1,12.8-4,18.5h-25.5C269.6,95,268.2,88.7,268.6,82.3z M277,134.3
				v-16.8h16.8v16.8H277z M293.8,151.1v16.8H277v-16.8H293.8z M209.7,49.9l6.7,34h-13.2L209.7,49.9z M201.4,100.7h16.8v67.1h-16.8
				V100.7z M100.7,16.8h42l0,67.1h-42L100.7,16.8L100.7,16.8z M92.3,134.3c9.3,0,16.8-7.5,16.8-16.8v-16.8h25.2v16.8
				c0,9.3,7.5,16.8,16.8,16.8v33.6H92.4l-0.1,0L92.3,134.3L92.3,134.3z M486.7,260.3l-0.2,226.6L17,486.6l-0.2-226.4
				c0-20,7.9-39.3,22.1-53.5c14.2-14.2,33.4-22.1,53.4-22.1h318.8c20,0,39.3,8,53.4,22.1C478.8,221,486.8,240.2,486.7,260.3z"/>
			<path class="st0" d="M315.8,235.1L315.8,235.1c-14.5,0-28.4,6.1-38.2,16.8l-25.8,27.6L226,251.8c-9.8-10.6-23.6-16.7-38.1-16.7
				h-0.1c-14.4,0-28.2,6.1-38,16.8c-20.6,22.6-20.6,57.1,0,79.7l95.8,102.3c1.6,1.7,3.8,2.7,6.1,2.7s4.5-1,6.1-2.7l95.8-102.3
				c20.6-22.6,20.6-57.1,0-79.7C344,241.2,330.2,235.1,315.8,235.1z M341.5,320.1L341.5,320.1L341.5,320.1l-89.7,95.8l-89.7-95.8
				c-14.7-16.1-14.7-40.7,0-56.7c6.6-7.2,16-11.4,25.8-11.4h0c9.8,0,19.2,4.2,25.8,11.4l32,34.2c1.6,1.6,3.8,2.5,6.1,2.5
				s4.5-0.9,6.1-2.5l31.9-34.1c6.6-7.3,16-11.4,25.9-11.5h0c9.8,0.1,19.1,4.2,25.8,11.4C356.2,279.4,356.2,304,341.5,320.1z"/>
			<path class="st0" d="M42,260.3c-2.2,0-4.4,0.9-5.9,2.5s-2.5,3.7-2.5,5.9v109.1c0,4.6,3.8,8.4,8.4,8.4s8.4-3.8,8.4-8.4V268.7
				c0-2.2-0.9-4.4-2.5-5.9C46.3,261.1,44.2,260.3,42,260.3z"/>
			<path class="st0" d="M42,403c-2.2,0-4.4,0.9-5.9,2.5s-2.5,3.7-2.5,5.9v33.6c0,4.6,3.8,8.4,8.4,8.4s8.4-3.8,8.4-8.4v-33.6
				c0-2.2-0.9-4.4-2.5-5.9C46.3,403.8,44.2,403,42,403z"/>
		</g>
	</g>
</g>
</svg>
